<svg xmlns="http://www.w3.org/2000/svg" width="1180" height="820" viewBox="0 0 1180 820"><rect width="100%" height="100%" fill="#f8fafc"/><text x="24" y="18" font-size="16" font-weight="700" fill="#0f172a">Bayes-Optimal Knowledge Arbitration: Spotlight Figure Suite</text><text x="32" y="40" font-size="13" font-weight="700">Spotlight Matrix Regret</text><rect x="68" y="52" width="496" height="304" fill="white" stroke="#222" stroke-width="1"/><line x1="68" y1="356.08" x2="564" y2="356.08" stroke="#e5e7eb" stroke-width="1"/><text x="62" y="360.08" text-anchor="end" font-size="10" fill="#444">-1.40</text><line x1="68" y1="204.32" x2="564" y2="204.32" stroke="#e5e7eb" stroke-width="1"/><text x="62" y="208.32" text-anchor="end" font-size="10" fill="#444">3.90</text><line x1="68" y1="52.55" x2="564" y2="52.55" stroke="#e5e7eb" stroke-width="1"/><text x="62" y="56.55" text-anchor="end" font-size="10" fill="#444">9.20</text><line x1="95.56" y1="356" x2="95.56" y2="361" stroke="#222" stroke-width="1"/><text x="95.56" y="374" text-anchor="middle" font-size="10" fill="#444">Bayes</text><line x1="150.67" y1="356" x2="150.67" y2="361" stroke="#222" stroke-width="1"/><text x="150.67" y="374" text-anchor="middle" font-size="10" fill="#444">Heuristic</text><line x1="205.78" y1="356" x2="205.78" y2="361" stroke="#222" stroke-width="1"/><text x="205.78" y="374" text-anchor="middle" font-size="10" fill="#444">Self-RAG</text><line x1="260.89" y1="356" x2="260.89" y2="361" stroke="#222" stroke-width="1"/><text x="260.89" y="374" text-anchor="middle" font-size="10" fill="#444">CoCoA</text><line x1="316.00" y1="356" x2="316.00" y2="361" stroke="#222" stroke-width="1"/><text x="316.00" y="374" text-anchor="middle" font-size="10" fill="#444">AdaCAD</text><line x1="371.11" y1="356" x2="371.11" y2="361" stroke="#222" stroke-width="1"/><text x="371.11" y="374" text-anchor="middle" font-size="10" fill="#444">CAD</text><line x1="426.22" y1="356" x2="426.22" y2="361" stroke="#222" stroke-width="1"/><text x="426.22" y="374" text-anchor="middle" font-size="10" fill="#444">Fixed 50</text><line x1="481.33" y1="356" x2="481.33" y2="361" stroke="#222" stroke-width="1"/><text x="481.33" y="374" text-anchor="middle" font-size="10" fill="#444">Always ctx</text><line x1="536.44" y1="356" x2="536.44" y2="361" stroke="#222" stroke-width="1"/><text x="536.44" y="374" text-anchor="middle" font-size="10" fill="#444">Always param</text><line x1="68" y1="336.62" x2="564" y2="336.62" stroke="#111827" stroke-width="1"/><rect x="77.37" y="315.99" width="36.37" height="20.63" fill="#0f766e" opacity="0.9"/><rect x="132.48" y="315.99" width="36.37" height="20.63" fill="#b45309" opacity="0.9"/><rect x="187.59" y="315.99" width="36.37" height="20.63" fill="#2563eb" opacity="0.9"/><rect x="242.70" y="315.99" width="36.37" height="20.63" fill="#7c3aed" opacity="0.9"/><rect x="297.81" y="315.99" width="36.37" height="20.63" fill="#9333ea" opacity="0.9"/><rect x="352.92" y="315.99" width="36.37" height="20.63" fill="#64748b" opacity="0.9"/><rect x="408.04" y="336.62" width="36.37" height="1.00" fill="#dc2626" opacity="0.9"/><rect x="463.15" y="336.62" width="36.37" height="1.00" fill="#ef4444" opacity="0.9"/><rect x="518.26" y="336.62" width="36.37" height="1.00" fill="#f97316" opacity="0.9"/><text x="612" y="40" font-size="13" font-weight="700">Conflict Density Sweep</text><rect x="648" y="52" width="496" height="304" fill="white" stroke="#222" stroke-width="1"/><line x1="648" y1="357.33" x2="1144" y2="357.33" stroke="#e5e7eb" stroke-width="1"/><text x="642" y="361.33" text-anchor="end" font-size="10" fill="#444">-0.30</text><line x1="648" y1="199.83" x2="1144" y2="199.83" stroke="#e5e7eb" stroke-width="1"/><text x="642" y="203.83" text-anchor="end" font-size="10" fill="#444">-0.16</text><line x1="648" y1="53.57" x2="1144" y2="53.57" stroke="#e5e7eb" stroke-width="1"/><text x="642" y="57.57" text-anchor="end" font-size="10" fill="#444">-0.03</text><line x1="648.00" y1="356" x2="648.00" y2="361" stroke="#222" stroke-width="1"/><text x="648.00" y="374" text-anchor="middle" font-size="10" fill="#444">0.33</text><line x1="896.00" y1="356" x2="896.00" y2="361" stroke="#222" stroke-width="1"/><text x="896.00" y="374" text-anchor="middle" font-size="10" fill="#444">0.58</text><line x1="1144.00" y1="356" x2="1144.00" y2="361" stroke="#222" stroke-width="1"/><text x="1144.00" y="374" text-anchor="middle" font-size="10" fill="#444">0.84</text><path d="M 670.55 87.08 L 814.45 220.19 L 814.45 217.92 L 1073.49 221.72 L 1121.45 320.92" fill="none" stroke="#0f766e" stroke-width="2"/><circle cx="670.55" cy="87.08" r="3" fill="#0f766e"/><text x="674.55" y="81.08" font-size="9" fill="#374151">popqa</text><circle cx="814.45" cy="220.19" r="3" fill="#0f766e"/><text x="818.45" y="214.19" font-size="9" fill="#374151">faitheval</text><circle cx="814.45" cy="217.92" r="3" fill="#0f766e"/><text x="818.45" y="211.92" font-size="9" fill="#374151">memotrap</text><circle cx="1073.49" cy="221.72" r="3" fill="#0f766e"/><text x="1077.49" y="215.72" font-size="9" fill="#374151">nq_swap</text><circle cx="1121.45" cy="320.92" r="3" fill="#0f766e"/><text x="1125.45" y="314.92" font-size="9" fill="#374151">conflictbank</text><path d="M 670.55 114.80 L 814.45 105.03 L 814.45 104.31 L 1073.49 107.01 L 1121.45 168.03" fill="none" stroke="#b45309" stroke-width="2"/><circle cx="670.55" cy="114.80" r="3" fill="#b45309"/><circle cx="814.45" cy="105.03" r="3" fill="#b45309"/><circle cx="814.45" cy="104.31" r="3" fill="#b45309"/><circle cx="1073.49" cy="107.01" r="3" fill="#b45309"/><circle cx="1121.45" cy="168.03" r="3" fill="#b45309"/><path d="M 670.55 264.29 L 814.45 161.13 L 814.45 129.74 L 1073.49 161.69 L 1121.45 201.29" fill="none" stroke="#2563eb" stroke-width="2"/><circle cx="670.55" cy="264.29" r="3" fill="#2563eb"/><circle cx="814.45" cy="161.13" r="3" fill="#2563eb"/><circle cx="814.45" cy="129.74" r="3" fill="#2563eb"/><circle cx="1073.49" cy="161.69" r="3" fill="#2563eb"/><circle cx="1121.45" cy="201.29" r="3" fill="#2563eb"/><line x1="1052" y1="62" x2="1066" y2="62" stroke="#0f766e" stroke-width="2"/><text x="1070" y="66" font-size="10">Bayes</text><line x1="1052" y1="76" x2="1066" y2="76" stroke="#b45309" stroke-width="2"/><text x="1070" y="80" font-size="10">Heuristic</text><line x1="1052" y1="90" x2="1066" y2="90" stroke="#2563eb" stroke-width="2"/><text x="1070" y="94" font-size="10">Self-RAG</text><text x="32" y="436" font-size="13" font-weight="700">Reliability Diagram</text><rect x="68" y="448" width="496" height="304" fill="white" stroke="#222" stroke-width="1"/><line x1="68" y1="752.00" x2="564" y2="752.00" stroke="#e5e7eb" stroke-width="1"/><text x="62" y="756.00" text-anchor="end" font-size="10" fill="#444">0.00</text><line x1="68" y1="600.00" x2="564" y2="600.00" stroke="#e5e7eb" stroke-width="1"/><text x="62" y="604.00" text-anchor="end" font-size="10" fill="#444">0.50</text><line x1="68" y1="448.00" x2="564" y2="448.00" stroke="#e5e7eb" stroke-width="1"/><text x="62" y="452.00" text-anchor="end" font-size="10" fill="#444">1.00</text><line x1="68.00" y1="752" x2="68.00" y2="757" stroke="#222" stroke-width="1"/><text x="68.00" y="770" text-anchor="middle" font-size="10" fill="#444">0.00</text><line x1="316.00" y1="752" x2="316.00" y2="757" stroke="#222" stroke-width="1"/><text x="316.00" y="770" text-anchor="middle" font-size="10" fill="#444">0.50</text><line x1="564.00" y1="752" x2="564.00" y2="757" stroke="#222" stroke-width="1"/><text x="564.00" y="770" text-anchor="middle" font-size="10" fill="#444">1.00</text><path d="M 68.00 752.00 L 117.60 721.60 L 167.20 691.20 L 216.80 660.80 L 266.40 630.40 L 316.00 600.00 L 365.60 569.60 L 415.20 539.20 L 464.80 508.80 L 514.40 478.40 L 564.00 448.00" fill="none" stroke="#9ca3af" stroke-width="1.5" stroke-dasharray="4 3"/><path d="M 87.31 750.50 L 135.90 750.39 L 196.42 448.00 L 244.46 448.00 L 292.72 448.00 L 343.14 448.00 L 393.20 448.00 L 442.24 448.00 L 490.46 448.00 L 542.04 448.00" fill="none" stroke="#0f766e" stroke-width="2"/><circle cx="87.31" cy="750.50" r="3" fill="#0f766e"/><circle cx="135.90" cy="750.39" r="3" fill="#0f766e"/><circle cx="196.42" cy="448.00" r="3" fill="#0f766e"/><circle cx="244.46" cy="448.00" r="3" fill="#0f766e"/><circle cx="292.72" cy="448.00" r="3" fill="#0f766e"/><circle cx="343.14" cy="448.00" r="3" fill="#0f766e"/><circle cx="393.20" cy="448.00" r="3" fill="#0f766e"/><circle cx="442.24" cy="448.00" r="3" fill="#0f766e"/><circle cx="490.46" cy="448.00" r="3" fill="#0f766e"/><circle cx="542.04" cy="448.00" r="3" fill="#0f766e"/><path d="M 89.22 751.92 L 142.28 751.83 L 180.52 751.70 L 256.35 448.00 L 297.42 448.00 L 343.28 448.00 L 397.73 448.00 L 439.84 448.00 L 478.12 448.00 L 539.20 752.00" fill="none" stroke="#b45309" stroke-width="2"/><circle cx="89.22" cy="751.92" r="3" fill="#b45309"/><circle cx="142.28" cy="751.83" r="3" fill="#b45309"/><circle cx="180.52" cy="751.70" r="3" fill="#b45309"/><circle cx="256.35" cy="448.00" r="3" fill="#b45309"/><circle cx="297.42" cy="448.00" r="3" fill="#b45309"/><circle cx="343.28" cy="448.00" r="3" fill="#b45309"/><circle cx="397.73" cy="448.00" r="3" fill="#b45309"/><circle cx="439.84" cy="448.00" r="3" fill="#b45309"/><circle cx="478.12" cy="448.00" r="3" fill="#b45309"/><circle cx="539.20" cy="752.00" r="3" fill="#b45309"/><line x1="472" y1="458" x2="486" y2="458" stroke="#0f766e" stroke-width="2"/><text x="490" y="462" font-size="10">Bayes</text><line x1="472" y1="472" x2="486" y2="472" stroke="#b45309" stroke-width="2"/><text x="490" y="476" font-size="10">Heuristic</text><line x1="472" y1="486" x2="486" y2="486" stroke="#9ca3af" stroke-width="2" stroke-dasharray="4 3"/><text x="490" y="490" font-size="10">Perfect</text><text x="612" y="436" font-size="13" font-weight="700">Two-Regime Curves</text><text x="616.0" y="454" font-size="11" font-weight="700">ConflictBank</text><rect x="642.0" y="460" width="225.0" height="300" fill="white" stroke="#222" stroke-width="1"/><line x1="642.0" y1="760.33" x2="867.0" y2="760.33" stroke="#e5e7eb" stroke-width="1"/><text x="636.0" y="764.33" text-anchor="end" font-size="10" fill="#444">-0.48</text><line x1="642.0" y1="609.89" x2="867.0" y2="609.89" stroke="#e5e7eb" stroke-width="1"/><text x="636.0" y="613.89" text-anchor="end" font-size="10" fill="#444">0.29</text><line x1="642.0" y1="459.45" x2="867.0" y2="459.45" stroke="#e5e7eb" stroke-width="1"/><text x="636.0" y="463.45" text-anchor="end" font-size="10" fill="#444">1.06</text><line x1="642.00" y1="760" x2="642.00" y2="765" stroke="#222" stroke-width="1"/><text x="642.00" y="778" text-anchor="middle" font-size="10" fill="#444">0</text><line x1="670.12" y1="760" x2="670.12" y2="765" stroke="#222" stroke-width="1"/><text x="670.12" y="778" text-anchor="middle" font-size="10" fill="#444">128</text><line x1="867.00" y1="760" x2="867.00" y2="765" stroke="#222" stroke-width="1"/><text x="867.00" y="778" text-anchor="middle" font-size="10" fill="#444">1024</text><path d="M 642.00 559.00 L 670.12 519.41 L 867.00 562.85" fill="none" stroke="#0f766e" stroke-width="2"/><circle cx="642.00" cy="559.00" r="2.5" fill="#0f766e"/><circle cx="670.12" cy="519.41" r="2.5" fill="#0f766e"/><circle cx="867.00" cy="562.85" r="2.5" fill="#0f766e"/><path d="M 642.00 647.09 L 670.12 612.75 L 867.00 739.31" fill="none" stroke="#0f766e" stroke-width="2" stroke-dasharray="5 3"/><circle cx="642.00" cy="647.09" r="2.5" fill="#0f766e"/><circle cx="670.12" cy="612.75" r="2.5" fill="#0f766e"/><circle cx="867.00" cy="739.31" r="2.5" fill="#0f766e"/><path d="M 642.00 551.75 L 670.12 481.94 L 867.00 480.69" fill="none" stroke="#dc2626" stroke-width="2"/><circle cx="642.00" cy="551.75" r="2.5" fill="#dc2626"/><circle cx="670.12" cy="481.94" r="2.5" fill="#dc2626"/><circle cx="867.00" cy="480.69" r="2.5" fill="#dc2626"/><path d="M 642.00 653.05 L 670.12 605.83 L 867.00 646.39" fill="none" stroke="#dc2626" stroke-width="2" stroke-dasharray="5 3"/><circle cx="642.00" cy="653.05" r="2.5" fill="#dc2626"/><circle cx="670.12" cy="605.83" r="2.5" fill="#dc2626"/><circle cx="867.00" cy="646.39" r="2.5" fill="#dc2626"/><text x="887.0" y="454" font-size="11" font-weight="700">WikiContradict</text><rect x="913.0" y="460" width="225.0" height="300" fill="white" stroke="#222" stroke-width="1"/><line x1="913.0" y1="754.75" x2="1138.0" y2="754.75" stroke="#e5e7eb" stroke-width="1"/><text x="907.0" y="758.75" text-anchor="end" font-size="10" fill="#444">0.25</text><line x1="913.0" y1="614.37" x2="1138.0" y2="614.37" stroke="#e5e7eb" stroke-width="1"/><text x="907.0" y="618.37" text-anchor="end" font-size="10" fill="#444">0.38</text><line x1="913.0" y1="463.20" x2="1138.0" y2="463.20" stroke="#e5e7eb" stroke-width="1"/><text x="907.0" y="467.20" text-anchor="end" font-size="10" fill="#444">0.52</text><line x1="913.00" y1="760" x2="913.00" y2="765" stroke="#222" stroke-width="1"/><text x="913.00" y="778" text-anchor="middle" font-size="10" fill="#444">0</text><line x1="941.12" y1="760" x2="941.12" y2="765" stroke="#222" stroke-width="1"/><text x="941.12" y="778" text-anchor="middle" font-size="10" fill="#444">128</text><line x1="1138.00" y1="760" x2="1138.00" y2="765" stroke="#222" stroke-width="1"/><text x="1138.00" y="778" text-anchor="middle" font-size="10" fill="#444">1024</text><path d="M 913.00 709.07 L 941.12 503.69 L 1138.00 546.45" fill="none" stroke="#0f766e" stroke-width="2"/><circle cx="913.00" cy="709.07" r="2.5" fill="#0f766e"/><circle cx="941.12" cy="503.69" r="2.5" fill="#0f766e"/><circle cx="1138.00" cy="546.45" r="2.5" fill="#0f766e"/><path d="M 913.00 739.31 L 941.12 480.69 L 1138.00 557.03" fill="none" stroke="#0f766e" stroke-width="2" stroke-dasharray="5 3"/><circle cx="913.00" cy="739.31" r="2.5" fill="#0f766e"/><circle cx="941.12" cy="480.69" r="2.5" fill="#0f766e"/><circle cx="1138.00" cy="557.03" r="2.5" fill="#0f766e"/><path d="M 913.00 731.32 L 941.12 537.06 L 1138.00 619.77" fill="none" stroke="#dc2626" stroke-width="2"/><circle cx="913.00" cy="731.32" r="2.5" fill="#dc2626"/><circle cx="941.12" cy="537.06" r="2.5" fill="#dc2626"/><circle cx="1138.00" cy="619.77" r="2.5" fill="#dc2626"/><path d="M 913.00 704.76 L 941.12 568.05 L 1138.00 575.07" fill="none" stroke="#dc2626" stroke-width="2" stroke-dasharray="5 3"/><circle cx="913.00" cy="704.76" r="2.5" fill="#dc2626"/><circle cx="941.12" cy="568.05" r="2.5" fill="#dc2626"/><circle cx="1138.00" cy="575.07" r="2.5" fill="#dc2626"/><line x1="1034" y1="746" x2="1048" y2="746" stroke="#0f766e" stroke-width="2"/><text x="1052" y="750" font-size="9">7B conflict</text><line x1="1034" y1="758" x2="1048" y2="758" stroke="#0f766e" stroke-width="2" stroke-dasharray="5 3"/><text x="1052" y="762" font-size="9">7B no-conflict</text><line x1="1034" y1="770" x2="1048" y2="770" stroke="#dc2626" stroke-width="2"/><text x="1052" y="774" font-size="9">14B conflict</text><line x1="1034" y1="782" x2="1048" y2="782" stroke="#dc2626" stroke-width="2" stroke-dasharray="5 3"/><text x="1052" y="786" font-size="9">14B no-conflict</text></svg>